<svg width="303" height="399" viewBox="0 0 303 399" fill="none" xmlns="http://www.w3.org/2000/svg">
<path d="M39.0584 7H263.606C272.108 7 280.262 10.3776 286.274 16.3897C292.286 22.4018 295.664 30.556 295.664 39.0584V359.846C295.664 368.35 292.286 376.505 286.273 382.518C280.26 388.531 272.105 391.909 263.602 391.909H39.0544C30.553 391.909 22.3999 388.532 16.3885 382.52C10.3771 376.509 7 368.356 7 359.854V39.0616C6.99958 34.8514 7.82848 30.6823 9.43938 26.7924C11.0503 22.9025 13.4116 19.3681 16.3886 16.3908C19.3655 13.4136 22.8997 11.0519 26.7894 9.44061C30.6792 7.82932 34.8482 7 39.0584 7Z" fill="white"/>
<path d="M105.071 151.104C101.166 147.199 101.166 140.867 105.071 136.962L143.962 98.071C147.867 94.1658 154.199 94.1658 158.104 98.071L196.995 136.962C200.9 140.867 200.9 147.199 196.995 151.104L158.104 189.995C154.199 193.9 147.867 193.9 143.962 189.995L105.071 151.104Z" fill="white"/>
<path d="M62 251H240M62 307H240M39.0584 7H263.606C272.108 7 280.262 10.3776 286.274 16.3897C292.286 22.4018 295.664 30.556 295.664 39.0584V359.846C295.664 368.35 292.286 376.505 286.273 382.518C280.26 388.531 272.105 391.909 263.602 391.909H39.0544C30.553 391.909 22.3999 388.532 16.3885 382.52C10.3771 376.509 7 368.356 7 359.854V39.0616C6.99958 34.8514 7.82848 30.6823 9.43938 26.7924C11.0503 22.9025 13.4116 19.3681 16.3886 16.3908C19.3655 13.4136 22.8997 11.0519 26.7894 9.44061C30.6792 7.82932 34.8482 7 39.0584 7ZM158.104 189.995L196.995 151.104C200.9 147.199 200.9 140.867 196.995 136.962L158.104 98.071C154.199 94.1658 147.867 94.1658 143.962 98.071L105.071 136.962C101.166 140.867 101.166 147.199 105.071 151.104L143.962 189.995C147.867 193.9 154.199 193.9 158.104 189.995Z" stroke="black" stroke-width="13" stroke-linecap="round"/>
<path d="M139.061 101.061L107.061 133.062C100.617 139.505 100.617 149.952 107.061 156.396L139.061 188.397C145.505 194.841 155.952 194.841 162.396 188.397L194.397 156.396C200.84 149.952 200.84 139.505 194.397 133.062L162.396 101.061C155.952 94.617 145.505 94.6171 139.061 101.061Z" fill="#00679A" stroke="black" stroke-width="15"/>
</svg>
