<svg width="317" height="413" viewBox="0 0 317 413" fill="none" xmlns="http://www.w3.org/2000/svg">
<path d="M69 258H247M69 314H247M46.0584 14H270.606C279.108 14 287.262 17.3776 293.274 23.3897C299.286 29.4018 302.664 37.556 302.664 46.0584V366.846C302.664 375.35 299.286 383.505 293.273 389.518C287.26 395.531 279.105 398.909 270.602 398.909H46.0544C37.553 398.909 29.3999 395.532 23.3885 389.52C17.3771 383.509 14 375.356 14 366.854V46.0616C13.9996 41.8514 14.8285 37.6823 16.4394 33.7924C18.0503 29.9025 20.4116 26.3681 23.3886 23.3908C26.3655 20.4136 29.8997 18.0519 33.7894 16.4406C37.6792 14.8293 41.8482 14 46.0584 14ZM165.104 196.995L203.995 158.104C207.9 154.199 207.9 147.867 203.995 143.962L165.104 105.071C161.199 101.166 154.867 101.166 150.962 105.071L112.071 143.962C108.166 147.867 108.166 154.199 112.071 158.104L150.962 196.995C154.867 200.9 161.199 200.9 165.104 196.995Z" stroke="black" stroke-width="28" stroke-linecap="round"/>
</svg>
