<svg width="512" height="512" viewBox="0 0 512 512" fill="none" xmlns="http://www.w3.org/2000/svg">
<path d="M483.318 147.249C481.032 143.702 478.063 140.646 474.584 138.26C471.104 135.873 467.184 134.202 463.053 133.346L305.865 99.9064C304.699 99.6585 303.493 99.6742 302.334 99.9523C301.175 100.23 300.093 100.764 299.167 101.514C298.241 102.264 297.494 103.211 296.98 104.286C296.467 105.362 296.201 106.539 296.201 107.73V368.85C296.196 373.108 294.503 377.189 291.494 380.2C288.484 383.211 284.404 384.906 280.146 384.913H164.982C163.147 384.913 161.368 385.543 159.943 386.699C158.518 387.855 157.533 389.465 157.154 391.261L152.594 412.878C151.709 416.999 151.646 421.253 152.408 425.397C153.17 429.542 154.743 433.495 157.035 437.031C159.328 440.567 162.296 443.616 165.769 446.003C169.242 448.39 173.152 450.068 177.274 450.941L386.16 495.28C388.37 495.759 390.625 496 392.886 496C400.224 495.974 407.332 493.44 413.031 488.819C418.731 484.198 422.68 477.767 424.222 470.594L487.73 171.32C488.629 167.216 488.701 162.974 487.944 158.841C487.187 154.708 485.614 150.768 483.318 147.249Z" fill="#FF9DB0"/>
<path d="M352.163 185.783L380.338 259.261C382.233 264.202 377.923 269.287 372.739 268.228L289.832 251.295C284.647 250.236 282.677 243.868 286.357 240.066L341.088 183.521C344.497 179.999 350.409 181.207 352.163 185.783Z" fill="white" stroke="black" stroke-width="14"/>
<path d="M225 298L399 334" stroke="black" stroke-width="10" stroke-linecap="round"/>
<path d="M211 355L385 391" stroke="black" stroke-width="10" stroke-linecap="round"/>
<path d="M55.5953 16H280.142C288.645 16 296.799 19.3776 302.811 25.3897C308.823 31.4018 312.201 39.556 312.201 48.0584V368.846C312.201 377.35 308.823 385.505 302.81 391.518C296.797 397.531 288.642 400.909 280.138 400.909H55.5913C47.0899 400.909 38.9367 397.532 32.9254 391.52C26.914 385.509 23.5369 377.356 23.5369 368.854V48.0616C23.5364 43.8514 24.3653 39.6823 25.9762 35.7924C27.5871 31.9025 29.9485 28.3681 32.9254 25.3908C35.9024 22.4136 39.4366 20.0519 43.3263 18.4406C47.216 16.8293 51.385 16 55.5953 16Z" fill="#A0C8FF"/>
<path d="M483.319 147.247C481.033 143.701 478.064 140.645 474.585 138.258C471.105 135.871 467.185 134.201 463.054 133.345L312.202 101.251V48.0592C312.193 39.5604 308.812 31.4124 302.803 25.4024C296.794 19.3924 288.647 16.011 280.148 16H55.5927C47.0939 16.011 38.9464 19.3924 32.9373 25.4024C26.9282 31.4124 23.5481 39.5604 23.5383 48.0592V368.845C23.5472 377.344 26.927 385.493 32.9362 391.504C38.9454 397.514 47.0934 400.896 55.5927 400.907H155.12L152.594 412.872C151.709 416.992 151.646 421.246 152.408 425.391C153.17 429.536 154.743 433.489 157.035 437.025C159.328 440.561 162.296 443.609 165.769 445.996C169.242 448.383 173.152 450.061 177.274 450.934L386.16 495.28C388.37 495.759 390.625 496 392.886 496C400.224 495.974 407.332 493.44 413.031 488.819C418.731 484.198 422.679 477.768 424.222 470.594L487.73 171.321C488.63 167.216 488.703 162.974 487.945 158.84C487.188 154.707 485.615 150.766 483.319 147.247ZM55.5927 384.907C51.3355 384.9 47.2548 383.206 44.2452 380.195C41.2357 377.184 39.543 373.102 39.5383 368.845V48.0592C39.5426 43.8022 41.2352 39.7206 44.2449 36.71C47.2547 33.6994 51.3357 32.0055 55.5927 32H280.148C284.405 32.0055 288.486 33.6993 291.495 36.7097C294.505 39.7202 296.198 43.8015 296.202 48.0584V368.845C296.198 373.102 294.505 377.184 291.495 380.195C288.486 383.206 284.405 384.9 280.148 384.907H55.5927ZM472.093 167.947L472.085 167.978L408.578 467.243C408.139 469.315 407.295 471.28 406.095 473.024C404.895 474.769 403.362 476.26 401.585 477.411C399.821 478.563 397.845 479.353 395.773 479.734C393.701 480.116 391.574 480.082 389.515 479.634L180.585 435.28C178.52 434.843 176.562 434.002 174.823 432.806C173.084 431.61 171.598 430.082 170.451 428.31C169.304 426.539 168.518 424.558 168.139 422.482C167.76 420.406 167.794 418.275 168.24 416.212L171.466 400.907H280.146C288.646 400.896 296.793 397.514 302.803 391.503C308.812 385.493 312.192 377.344 312.201 368.845V117.61L459.748 148.997C461.817 149.426 463.779 150.262 465.522 151.457C467.264 152.652 468.751 154.181 469.896 155.957C471.04 157.709 471.824 159.672 472.201 161.731C472.578 163.789 472.541 165.903 472.093 167.947Z" fill="black"/>
<rect x="104.393" y="135.033" width="90" height="90" rx="17.5" transform="rotate(-45 104.393 135.033)" fill="#FFD88E" stroke="black" stroke-width="15"/>
<path d="M79 242H257" stroke="black" stroke-width="10" stroke-linecap="round"/>
<path d="M79 298H257" stroke="black" stroke-width="10" stroke-linecap="round"/>
</svg>
